<svg width="512" height="498" viewBox="0 0 512 498" fill="none" xmlns="http://www.w3.org/2000/svg">
<path d="M365.74 110.924L365.75 112.96L367.691 112.348C378.168 109.044 389.165 106.773 400.736 106.773C461.398 106.773 510.5 155.905 510.5 216.537C510.5 265.1 478.775 305.785 434.999 320.233L433.054 320.874L434.253 322.535C447.335 340.652 455.215 362.65 455.215 386.642C455.215 447.275 406.143 496.416 345.451 496.416C309.137 496.416 277.213 478.624 257.195 451.382L255.985 449.736L254.777 451.383C234.789 478.624 202.865 496.416 166.511 496.416C105.859 496.416 56.757 447.274 56.757 386.642C56.757 362.65 64.6267 340.652 77.7478 322.537L78.9512 320.876L77.0031 320.233C33.2255 305.784 1.5 265.099 1.5 216.537C1.5 155.905 50.6027 106.773 111.265 106.773C122.836 106.773 133.834 109.044 144.31 112.348L146.253 112.96L146.261 110.923C146.489 50.4879 195.492 1.584 255.985 1.584C316.518 1.584 365.452 50.487 365.74 110.924ZM196.558 272.546C196.558 305.347 223.187 331.933 255.985 331.933C288.814 331.933 315.412 305.346 315.411 272.546C315.411 239.736 288.813 213.149 255.985 213.149C223.187 213.149 196.558 239.735 196.558 272.546Z" fill="#FDE047" stroke="#1E293B" stroke-width="3"/>
<path d="M256 333C289.137 333 316 306.137 316 273C316 239.863 289.137 213 256 213C222.863 213 196 239.863 196 273C196 306.137 222.863 333 256 333Z" fill="#1E293B"/>
</svg>
